<?xml version="1.0" encoding="UTF-8" standalone="no"?>
<!-- Created with Inkscape (http://www.inkscape.org/) -->

<svg
   xmlns:dc="http://purl.org/dc/elements/1.1/"
   xmlns:cc="http://creativecommons.org/ns#"
   xmlns:rdf="http://www.w3.org/1999/02/22-rdf-syntax-ns#"
   xmlns:svg="http://www.w3.org/2000/svg"
   xmlns="http://www.w3.org/2000/svg"
   xmlns:sodipodi="http://sodipodi.sourceforge.net/DTD/sodipodi-0.dtd"
   xmlns:inkscape="http://www.inkscape.org/namespaces/inkscape"
   id="svg2"
   version="1.1"
   inkscape:version="0.48.3.1 r9886"
   width="212.72429"
   height="109.41112"
   xml:space="preserve"
   sodipodi:docname="future1.pdf"><metadata
     id="metadata8"><rdf:RDF><cc:Work
         rdf:about=""><dc:format>image/svg+xml</dc:format><dc:type
           rdf:resource="http://purl.org/dc/dcmitype/StillImage" /><dc:title></dc:title></cc:Work></rdf:RDF></metadata><defs
     id="defs6"><clipPath
       clipPathUnits="userSpaceOnUse"
       id="clipPath20"><path
         d="M 0,0 171,0 171,88 0,88 0,0 z"
         id="path22" /></clipPath><clipPath
       clipPathUnits="userSpaceOnUse"
       id="clipPath3312"><rect
         style="fill:#000000;fill-opacity:0.43333333;stroke:none"
         id="rect3314"
         width="170.60718"
         height="92.350403"
         x="2.2253108"
         y="-90.495979"
         transform="scale(1,-1)"
         ry="0.12553123" /></clipPath></defs><sodipodi:namedview
     pagecolor="#ffffff"
     bordercolor="#666666"
     borderopacity="1"
     objecttolerance="10"
     gridtolerance="10"
     guidetolerance="10"
     inkscape:pageopacity="0"
     inkscape:pageshadow="2"
     inkscape:window-width="1366"
     inkscape:window-height="709"
     id="namedview4"
     showgrid="false"
     inkscape:zoom="2.157002"
     inkscape:cx="115.759"
     inkscape:cy="56.902889"
     inkscape:window-x="0"
     inkscape:window-y="27"
     inkscape:window-maximized="1"
     inkscape:current-layer="g10" /><g
     id="g10"
     inkscape:groupmode="layer"
     inkscape:label="SubextremalSchwarzschildDeSitterCongruence"
     transform="matrix(1.25,0,0,-1.25,0,109.41112)"><g
       id="g12" /><g
       transform="translate(2.596196,-0.47109998)"
       id="g16"><g
         id="g18" /><g
         id="g24"><g
           id="g26"
           clip-path="url(#clipPath20)"><g
             id="g28"><path
               inkscape:connector-curvature="0"
               id="path30"
               style="fill:#000000;fill-opacity:1;fill-rule:evenodd;stroke:none"
               d="M 97.973,66.457 110.836,39.031" /><path
               inkscape:connector-curvature="0"
               id="path32"
               style="fill:#e6e6e6;fill-opacity:1;fill-rule:evenodd;stroke:none"
               d="m -75.738,83.883 321.145,0 0,-80 -321.145,0 0,80 z" /><path
               inkscape:connector-curvature="0"
               id="path34"
               style="fill:none;stroke:#e6e6e6;stroke-width:0.80000001;stroke-linecap:butt;stroke-linejoin:miter;stroke-miterlimit:4;stroke-opacity:1;stroke-dasharray:none"
               d="m -75.738,83.883 80,-80 80,80 80,-80" /><path
               inkscape:connector-curvature="0"
               id="path36"
               style="fill:none;stroke:#000000;stroke-width:0.80000001;stroke-linecap:butt;stroke-linejoin:miter;stroke-miterlimit:4;stroke-opacity:1;stroke-dasharray:none"
               d="m 3.973,3.883 2,2 2.289,-2 1.711,2 2,-2 2,2 2,-2 2,2 2,-2 2,2 2,-2" /><path
               inkscape:connector-curvature="0"
               id="path38"
               style="fill:none;stroke:#000000;stroke-width:0.80000001;stroke-linecap:butt;stroke-linejoin:miter;stroke-miterlimit:4;stroke-opacity:1;stroke-dasharray:none"
               d="m 23.973,3.883 2,2 2.289,-2 1.711,2 2,-2 2,2 2,-2 2,2 2,-2 2,2 2,-2" /><path
               inkscape:connector-curvature="0"
               id="path40"
               style="fill:none;stroke:#000000;stroke-width:0.80000001;stroke-linecap:butt;stroke-linejoin:miter;stroke-miterlimit:4;stroke-opacity:1;stroke-dasharray:none"
               d="m 43.973,3.883 2,2 2.289,-2 1.711,2 2,-2 2,2 2,-2 2,2 2,-2 2,2 2,-2" /><path
               inkscape:connector-curvature="0"
               id="path42"
               style="fill:none;stroke:#000000;stroke-width:0.80000001;stroke-linecap:butt;stroke-linejoin:miter;stroke-miterlimit:4;stroke-opacity:1;stroke-dasharray:none"
               d="m 64.262,3.883 2,2 2.285,-2 1.715,2 2,-2 2,2 2,-2 2,2 2,-2 2,2 2,-2" /><path
               inkscape:connector-curvature="0"
               id="path44"
               style="fill:none;stroke:#000000;stroke-width:0.80000001;stroke-linecap:butt;stroke-linejoin:miter;stroke-miterlimit:4;stroke-opacity:1;stroke-dasharray:none"
               d="m 4.547,83.031 2,2 2.289,-2 1.711,2 2,-2 2,2 2,-2 2,2 2,-2 2,2 2,-2" /><path
               inkscape:connector-curvature="0"
               id="path46"
               style="fill:none;stroke:#000000;stroke-width:0.80000001;stroke-linecap:butt;stroke-linejoin:miter;stroke-miterlimit:4;stroke-opacity:1;stroke-dasharray:none"
               d="m 24.379,83.312 2,2 2.285,-2 1.715,2 2,-2 2,2 2,-2 2,2 2,-2 2,2 2,-2" /><path
               inkscape:connector-curvature="0"
               id="path48"
               style="fill:none;stroke:#000000;stroke-width:0.80000001;stroke-linecap:butt;stroke-linejoin:miter;stroke-miterlimit:4;stroke-opacity:1;stroke-dasharray:none"
               d="m 44.262,83.598 2,2 2.285,-2 1.715,2 2,-2 2,2 2,-2 2,2 2,-2 2,2 2,-2" /><path
               inkscape:connector-curvature="0"
               id="path50"
               style="fill:none;stroke:#000000;stroke-width:0.80000001;stroke-linecap:butt;stroke-linejoin:miter;stroke-miterlimit:4;stroke-opacity:1;stroke-dasharray:none"
               d="m 64.262,83.598 2,2 2.285,-2 1.715,2 2,-2 2,2 2,-2 2,2 2,-2 2,2 2,-2" /><path
               inkscape:connector-curvature="0"
               id="path52"
               style="fill:none;stroke:#e6e6e6;stroke-width:0.80000001;stroke-linecap:butt;stroke-linejoin:miter;stroke-miterlimit:4;stroke-opacity:1;stroke-dasharray:none"
               d="m -75.738,83.883 80,-80 80,80 80,-80" /><path
               inkscape:connector-curvature="0"
               id="path54"
               style="fill:none;stroke:#080808;stroke-width:0.40000001;stroke-linecap:butt;stroke-linejoin:miter;stroke-miterlimit:4;stroke-opacity:1;stroke-dasharray:1.6, 1.6;stroke-dashoffset:0"
               d="m -75.738,83.883 80,-80 80,80 80,-80" /><path
               inkscape:connector-curvature="0"
               id="path56"
               style="fill:none;stroke:#080808;stroke-width:0.40000001;stroke-linecap:butt;stroke-linejoin:miter;stroke-miterlimit:4;stroke-opacity:1;stroke-dasharray:1.6, 1.6;stroke-dashoffset:0"
               d="m -76.027,2.746 80,80 80,-80 80,80" /><path
               inkscape:connector-curvature="0"
               id="path58"
               style="fill:none;stroke:#080808;stroke-width:0.80000001;stroke-linecap:butt;stroke-linejoin:miter;stroke-miterlimit:4;stroke-opacity:1;stroke-dasharray:none"
               d="m -75.738,83.883 80,0" /><path
               inkscape:connector-curvature="0"
               id="path60"
               style="fill:none;stroke:#080808;stroke-width:0.80000001;stroke-linecap:butt;stroke-linejoin:miter;stroke-miterlimit:4;stroke-opacity:1;stroke-dasharray:none"
               d="m -75.738,3.883 80,0" /><path
               inkscape:connector-curvature="0"
               id="path62"
               style="fill:none;stroke:#080808;stroke-width:0.80000001;stroke-linecap:butt;stroke-linejoin:miter;stroke-miterlimit:4;stroke-opacity:1;stroke-dasharray:none"
               d="m 84.262,83.883 80,0" /><path
               inkscape:connector-curvature="0"
               id="path64"
               style="fill:none;stroke:#080808;stroke-width:0.80000001;stroke-linecap:butt;stroke-linejoin:miter;stroke-miterlimit:4;stroke-opacity:1;stroke-dasharray:none"
               d="m 84.332,3.883 80,0" /><g
               id="g66"
               transform="matrix(1,0,0,-0.937705,0,88)"><path
                 inkscape:connector-curvature="0"
                 id="path68"
                 style="fill:#ffffff;fill-opacity:1;fill-rule:nonzero;stroke:#0b0b0b;stroke-width:0.50531101;stroke-linecap:butt;stroke-linejoin:round;stroke-miterlimit:4;stroke-opacity:1;stroke-dasharray:1.010623, 1.010623;stroke-dashoffset:0"
                 d="m 87.848,3.628 c 0,1.875 -1.418,3.4 -3.172,3.4 -1.754,0 -3.172,-1.525 -3.172,-3.4 0,-1.878 1.418,-3.407 3.172,-3.407 1.754,0 3.172,1.529 3.172,3.407 z" /></g><g
               id="g70"
               transform="matrix(1,0,0,-0.937705,0,88)"><path
                 inkscape:connector-curvature="0"
                 id="path72"
                 style="fill:#ffffff;fill-opacity:1;fill-rule:nonzero;stroke:#0b0b0b;stroke-width:0.50531101;stroke-linecap:butt;stroke-linejoin:round;stroke-miterlimit:4;stroke-opacity:1;stroke-dasharray:1.010623, 1.010623;stroke-dashoffset:0"
                 d="m 7.148,4.695 c 0,1.879 -1.421,3.395 -3.175,3.395 -1.75,0 -3.168,-1.516 -3.168,-3.395 0,-1.883 1.418,-3.404 3.168,-3.404 1.754,0 3.175,1.521 3.175,3.404 z" /></g><g
               id="g74"
               transform="matrix(1,0,0,-0.937705,0,88)"><path
                 inkscape:connector-curvature="0"
                 id="path76"
                 style="fill:#ffffff;fill-opacity:1;fill-rule:nonzero;stroke:#0b0b0b;stroke-width:0.50531101;stroke-linecap:butt;stroke-linejoin:round;stroke-miterlimit:4;stroke-opacity:1;stroke-dasharray:1.010623, 1.010623;stroke-dashoffset:0"
                 d="m 7.723,89.089 c 0,1.883 -1.422,3.407 -3.176,3.407 -1.75,0 -3.172,-1.524 -3.172,-3.407 0,-1.879 1.422,-3.395 3.172,-3.395 1.754,0 3.176,1.516 3.176,3.395 z" /></g><g
               id="g78"
               transform="matrix(1,0,0,-0.937705,0,88)"><path
                 inkscape:connector-curvature="0"
                 id="path80"
                 style="fill:#ffffff;fill-opacity:1;fill-rule:nonzero;stroke:#0b0b0b;stroke-width:0.50531101;stroke-linecap:butt;stroke-linejoin:round;stroke-miterlimit:4;stroke-opacity:1;stroke-dasharray:1.010623, 1.010623;stroke-dashoffset:0"
                 d="m 88.574,89.705 c 0,1.871 -1.418,3.4 -3.172,3.4 -1.754,0 -3.175,-1.529 -3.175,-3.4 0,-1.878 1.421,-3.407 3.175,-3.407 1.754,0 3.172,1.529 3.172,3.407 z" /></g><path
               inkscape:connector-curvature="0"
               id="path82"
               style="fill:none;stroke:#000000;stroke-width:0.80000001;stroke-linecap:butt;stroke-linejoin:miter;stroke-miterlimit:4;stroke-opacity:1;stroke-dasharray:none"
               d="m 164.117,83.004 2,2 2.285,-2 1.715,2 2,-2 2,2 2,-2 2,2 2,-2 2,2 2,-2" /><path
               inkscape:connector-curvature="0"
               id="path84"
               style="fill:none;stroke:#000000;stroke-width:0.80000001;stroke-linecap:butt;stroke-linejoin:miter;stroke-miterlimit:4;stroke-opacity:1;stroke-dasharray:none"
               d="m 166.293,3.746 2,2 2.281,-2 1.719,2 2,-2 2,2 2,-2 2,2 2,-2 2,2 2,-2" /><g
               id="g86"
               transform="matrix(1,0,0,-0.937705,0,88)"><path
                 inkscape:connector-curvature="0"
                 id="path88"
                 style="fill:#ffffff;fill-opacity:1;fill-rule:nonzero;stroke:#0b0b0b;stroke-width:0.50531101;stroke-linecap:butt;stroke-linejoin:round;stroke-miterlimit:4;stroke-opacity:1;stroke-dasharray:1.010623, 1.010623;stroke-dashoffset:0"
                 d="m 169.723,4.082 c 0,1.875 -1.422,3.4 -3.176,3.4 -1.75,0 -3.172,-1.525 -3.172,-3.4 0,-1.878 1.422,-3.403 3.172,-3.403 1.754,0 3.176,1.525 3.176,3.403 z" /></g><path
               inkscape:connector-curvature="0"
               id="path90"
               style="fill:none;stroke:#000000;stroke-width:0.38863799;stroke-linecap:butt;stroke-linejoin:miter;stroke-miterlimit:4;stroke-opacity:1;stroke-dasharray:1.554553, 1.554553;stroke-dashoffset:0"
               d="m 169.457,82.176 77.723,-77.723 0,0.277" /><path
               inkscape:connector-curvature="0"
               id="path92"
               style="fill:none;stroke:#000000;stroke-width:0.40000001;stroke-linecap:butt;stroke-linejoin:miter;stroke-miterlimit:4;stroke-opacity:1;stroke-dasharray:1.6, 1.6;stroke-dashoffset:0"
               d="m 245.117,83.598 -79.715,-79.137 0.286,0.57" /><g
               id="g94"
               transform="matrix(1,0,0,-0.937705,0,88)"><path
                 inkscape:connector-curvature="0"
                 id="path96"
                 style="fill:#ffffff;fill-opacity:1;fill-rule:nonzero;stroke:#0b0b0b;stroke-width:0.50531101;stroke-linecap:butt;stroke-linejoin:round;stroke-miterlimit:4;stroke-opacity:1;stroke-dasharray:1.010623, 1.010623;stroke-dashoffset:0"
                 d="m 167.723,89.089 c 0,1.883 -1.422,3.407 -3.176,3.407 -1.75,0 -3.172,-1.524 -3.172,-3.407 0,-1.879 1.422,-3.395 3.172,-3.395 1.754,0 3.176,1.516 3.176,3.395 z" /></g></g></g></g></g></g></svg>