<?xml version="1.0" encoding="UTF-8" standalone="no"?>
<!-- Created with Inkscape (http://www.inkscape.org/) -->

<svg
   xmlns:dc="http://purl.org/dc/elements/1.1/"
   xmlns:cc="http://creativecommons.org/ns#"
   xmlns:rdf="http://www.w3.org/1999/02/22-rdf-syntax-ns#"
   xmlns:svg="http://www.w3.org/2000/svg"
   xmlns="http://www.w3.org/2000/svg"
   xmlns:sodipodi="http://sodipodi.sourceforge.net/DTD/sodipodi-0.dtd"
   xmlns:inkscape="http://www.inkscape.org/namespaces/inkscape"
   id="svg2"
   version="1.1"
   inkscape:version="0.92.5 (2060ec1f9f, 2020-04-08)"
   width="212.72429"
   height="109.41112"
   xml:space="preserve"
   sodipodi:docname="SdSIDunphysical.svg"
   inkscape:export-filename="/home/gasperin/Academic/SpringTalks/figs/SdSIDunphysical.png"
   inkscape:export-xdpi="95.599998"
   inkscape:export-ydpi="95.599998"><metadata
     id="metadata8"><rdf:RDF><cc:Work
         rdf:about=""><dc:format>image/svg+xml</dc:format><dc:type
           rdf:resource="http://purl.org/dc/dcmitype/StillImage" /><dc:title></dc:title></cc:Work></rdf:RDF></metadata><defs
     id="defs6"><clipPath
       clipPathUnits="userSpaceOnUse"
       id="clipPath20"><path
         d="M 0,0 171,0 171,88 0,88 0,0 z"
         id="path22" /></clipPath><clipPath
       clipPathUnits="userSpaceOnUse"
       id="clipPath3312"><rect
         style="fill:#000000;fill-opacity:0.43333333;stroke:none"
         id="rect3314"
         width="170.60718"
         height="92.350403"
         x="2.2253108"
         y="-90.495979"
         transform="scale(1,-1)"
         ry="0.12553123" /></clipPath><clipPath
       clipPathUnits="userSpaceOnUse"
       id="clipPath1120"><rect
         style="opacity:0.76999996;fill:#000000;fill-opacity:0.275;stroke:#fc0000;stroke-width:1.12;stroke-miterlimit:4;stroke-dasharray:none;stroke-dashoffset:0;stroke-opacity:1"
         id="rect1122"
         width="172.39999"
         height="88.800003"
         x="0.40000001"
         y="-87.200005"
         transform="scale(1,-1)" /></clipPath><clipPath
       clipPathUnits="userSpaceOnUse"
       id="clipPath1031"><rect
         style="opacity:0.76999996;fill:#800000;fill-opacity:0.18500001;stroke:#000000;stroke-width:0.08000001;stroke-miterlimit:4;stroke-dasharray:none;stroke-dashoffset:0;stroke-opacity:0"
         id="rect1033"
         width="171.28757"
         height="89.059654"
         x="1.9517658"
         y="-88.571655"
         transform="scale(1,-1)" /></clipPath></defs><sodipodi:namedview
     pagecolor="#ffffff"
     bordercolor="#666666"
     borderopacity="1"
     objecttolerance="10"
     gridtolerance="10"
     guidetolerance="10"
     inkscape:pageopacity="0"
     inkscape:pageshadow="2"
     inkscape:window-width="1848"
     inkscape:window-height="1016"
     id="namedview4"
     showgrid="false"
     inkscape:zoom="3.2787012"
     inkscape:cx="110.24893"
     inkscape:cy="54.705213"
     inkscape:window-x="72"
     inkscape:window-y="27"
     inkscape:window-maximized="1"
     inkscape:current-layer="g10"
     showguides="false" /><g
     id="g10"
     inkscape:groupmode="layer"
     inkscape:label="SubextremalSchwarzschildDeSitterCongruence"
     transform="matrix(1.25,0,0,-1.25,0,109.41112)"><g
       id="g12" /><g
       id="g18"
       transform="translate(2.596196,-0.47109998)" /><g
       id="g1027"
       clip-path="url(#clipPath1031)"><path
         d="M -73.141804,83.4119 H 248.0032 v -80 H -73.141804 Z"
         style="fill:#e6e6e6;fill-opacity:1;fill-rule:evenodd;stroke:none"
         id="path32"
         inkscape:connector-curvature="0" /><path
         d="m 172.0532,81.7049 77.723,-77.723 v 0.277"
         style="fill:none;stroke:#000000;stroke-width:0.38863799;stroke-linecap:butt;stroke-linejoin:miter;stroke-miterlimit:4;stroke-dasharray:1.554553, 1.554553;stroke-dashoffset:0;stroke-opacity:1"
         id="path90"
         inkscape:connector-curvature="0" /><path
         d="m 247.7132,83.1269 -79.715,-79.137 0.286,0.57"
         style="fill:none;stroke:#000000;stroke-width:0.40000001;stroke-linecap:butt;stroke-linejoin:miter;stroke-miterlimit:4;stroke-dasharray:1.6, 1.6;stroke-dashoffset:0;stroke-opacity:1"
         id="path92"
         inkscape:connector-curvature="0" /><g
         id="g988"><g
           id="g953"><path
             d="m -73.141804,83.4119 80,-80 80,80 80.000004,-80"
             style="fill:none;stroke:#e6e6e6;stroke-width:0.80000001;stroke-linecap:butt;stroke-linejoin:miter;stroke-miterlimit:4;stroke-dasharray:none;stroke-opacity:1"
             id="path34"
             inkscape:connector-curvature="0" /><path
             d="m -73.141804,83.4119 80,-80 80,80 80.000004,-80"
             style="fill:none;stroke:#e6e6e6;stroke-width:0.80000001;stroke-linecap:butt;stroke-linejoin:miter;stroke-miterlimit:4;stroke-dasharray:none;stroke-opacity:1"
             id="path52"
             inkscape:connector-curvature="0" /><path
             d="m -73.141804,83.4119 80,-80 80,80 80.000004,-80"
             style="fill:none;stroke:#080808;stroke-width:0.40000001;stroke-linecap:butt;stroke-linejoin:miter;stroke-miterlimit:4;stroke-dasharray:1.6, 1.6;stroke-dashoffset:0;stroke-opacity:1"
             id="path54"
             inkscape:connector-curvature="0" /><path
             d="m -73.430804,2.2749 80,80 80,-80 80.000004,80"
             style="fill:none;stroke:#080808;stroke-width:0.40000001;stroke-linecap:butt;stroke-linejoin:miter;stroke-miterlimit:4;stroke-dasharray:1.6, 1.6;stroke-dashoffset:0;stroke-opacity:1"
             id="path56"
             inkscape:connector-curvature="0" /><path
             d="m -73.141804,83.4119 h 80"
             style="fill:none;stroke:#080808;stroke-width:0.80000001;stroke-linecap:butt;stroke-linejoin:miter;stroke-miterlimit:4;stroke-dasharray:none;stroke-opacity:1"
             id="path58"
             inkscape:connector-curvature="0" /><path
             d="m -73.141804,3.4119 h 80"
             style="fill:none;stroke:#080808;stroke-width:0.80000001;stroke-linecap:butt;stroke-linejoin:miter;stroke-miterlimit:4;stroke-dasharray:none;stroke-opacity:1"
             id="path60"
             inkscape:connector-curvature="0" /><path
             d="m 166.7132,82.5329 2,2 2.285,-2 1.715,2 2,-2 2,2 2,-2 2,2 2,-2 2,2 2,-2"
             style="fill:none;stroke:#000000;stroke-width:0.80000001;stroke-linecap:butt;stroke-linejoin:miter;stroke-miterlimit:4;stroke-dasharray:none;stroke-opacity:1"
             id="path82"
             inkscape:connector-curvature="0" /><path
             d="m 168.8892,3.2749 2,2 2.281,-2 1.719,2 2,-2 2,2 2,-2 2,2 2,-2 2,2 2,-2"
             style="fill:none;stroke:#000000;stroke-width:0.80000001;stroke-linecap:butt;stroke-linejoin:miter;stroke-miterlimit:4;stroke-dasharray:none;stroke-opacity:1"
             id="path84"
             inkscape:connector-curvature="0" /><path
             d="m 100.5692,65.9859 12.863,-27.426"
             style="fill:#000000;fill-opacity:1;fill-rule:evenodd;stroke:none"
             id="path30"
             inkscape:connector-curvature="0" /><path
             d="m 6.569196,3.4119 2,2 2.289,-2 1.711,2 2,-2 2,2 2,-2 2,2 2,-2 2,2 2,-2"
             style="fill:none;stroke:#000000;stroke-width:0.80000001;stroke-linecap:butt;stroke-linejoin:miter;stroke-miterlimit:4;stroke-dasharray:none;stroke-opacity:1"
             id="path36"
             inkscape:connector-curvature="0" /><path
             d="m 26.569196,3.4119 2,2 2.289,-2 1.711,2 2,-2 2,2 2,-2 2,2 2,-2 2,2 2,-2"
             style="fill:none;stroke:#000000;stroke-width:0.80000001;stroke-linecap:butt;stroke-linejoin:miter;stroke-miterlimit:4;stroke-dasharray:none;stroke-opacity:1"
             id="path38"
             inkscape:connector-curvature="0" /><path
             d="m 46.569196,3.4119 2,2 2.289,-2 1.711,2 2,-2 2,2 2,-2 2,2 2,-2 2,2 2,-2"
             style="fill:none;stroke:#000000;stroke-width:0.80000001;stroke-linecap:butt;stroke-linejoin:miter;stroke-miterlimit:4;stroke-dasharray:none;stroke-opacity:1"
             id="path40"
             inkscape:connector-curvature="0" /><path
             d="m 66.858196,3.4119 2,2 2.285,-2 1.715,2 2,-2 2,2 2,-2 2,2 2,-2 2,2 2,-2"
             style="fill:none;stroke:#000000;stroke-width:0.80000001;stroke-linecap:butt;stroke-linejoin:miter;stroke-miterlimit:4;stroke-dasharray:none;stroke-opacity:1"
             id="path42"
             inkscape:connector-curvature="0" /><path
             d="m 7.143196,82.5599 2,2 2.289,-2 1.711,2 2,-2 2,2 2,-2 2,2 2,-2 2,2 2,-2"
             style="fill:none;stroke:#000000;stroke-width:0.80000001;stroke-linecap:butt;stroke-linejoin:miter;stroke-miterlimit:4;stroke-dasharray:none;stroke-opacity:1"
             id="path44"
             inkscape:connector-curvature="0" /><path
             d="m 26.975196,82.8409 2,2 2.285,-2 1.715,2 2,-2 2,2 2,-2 2,2 2,-2 2,2 2,-2"
             style="fill:none;stroke:#000000;stroke-width:0.80000001;stroke-linecap:butt;stroke-linejoin:miter;stroke-miterlimit:4;stroke-dasharray:none;stroke-opacity:1"
             id="path46"
             inkscape:connector-curvature="0" /><path
             d="m 46.858196,83.1269 2,2 2.285,-2 1.715,2 2,-2 2,2 2,-2 2,2 2,-2 2,2 2,-2"
             style="fill:none;stroke:#000000;stroke-width:0.80000001;stroke-linecap:butt;stroke-linejoin:miter;stroke-miterlimit:4;stroke-dasharray:none;stroke-opacity:1"
             id="path48"
             inkscape:connector-curvature="0" /><path
             d="m 66.858196,83.1269 2,2 2.285,-2 1.715,2 2,-2 2,2 2,-2 2,2 2,-2 2,2 2,-2"
             style="fill:none;stroke:#000000;stroke-width:0.80000001;stroke-linecap:butt;stroke-linejoin:miter;stroke-miterlimit:4;stroke-dasharray:none;stroke-opacity:1"
             id="path50"
             inkscape:connector-curvature="0" /><path
             d="M 86.858196,83.4119 H 166.8582"
             style="fill:none;stroke:#080808;stroke-width:0.88;stroke-linecap:butt;stroke-linejoin:miter;stroke-miterlimit:4;stroke-dasharray:none;stroke-opacity:1"
             id="path62"
             inkscape:connector-curvature="0" /><path
             d="M 86.928196,3.4119 H 166.9282"
             style="fill:none;stroke:#080808;stroke-width:1.12;stroke-linecap:butt;stroke-linejoin:miter;stroke-miterlimit:4;stroke-dasharray:none;stroke-opacity:1"
             id="path64"
             inkscape:connector-curvature="0" /><g
             transform="matrix(1,0,0,-0.937705,2.596196,87.5289)"
             id="g66"><path
               d="m 87.848,3.628 c 0,1.875 -1.418,3.4 -3.172,3.4 -1.754,0 -3.172,-1.525 -3.172,-3.4 0,-1.878 1.418,-3.407 3.172,-3.407 1.754,0 3.172,1.529 3.172,3.407 z"
               style="fill:#ffffff;fill-opacity:1;fill-rule:nonzero;stroke:#0b0b0b;stroke-width:0.50531101;stroke-linecap:butt;stroke-linejoin:round;stroke-miterlimit:4;stroke-dasharray:1.010623, 1.010623;stroke-dashoffset:0;stroke-opacity:1"
               id="path68"
               inkscape:connector-curvature="0" /></g><g
             transform="matrix(1,0,0,-0.937705,2.596196,87.5289)"
             id="g70"><path
               d="m 7.148,4.695 c 0,1.879 -1.421,3.395 -3.175,3.395 -1.75,0 -3.168,-1.516 -3.168,-3.395 0,-1.883 1.418,-3.404 3.168,-3.404 1.754,0 3.175,1.521 3.175,3.404 z"
               style="fill:#ffffff;fill-opacity:1;fill-rule:nonzero;stroke:#0b0b0b;stroke-width:0.50531101;stroke-linecap:butt;stroke-linejoin:round;stroke-miterlimit:4;stroke-dasharray:1.010623, 1.010623;stroke-dashoffset:0;stroke-opacity:1"
               id="path72"
               inkscape:connector-curvature="0" /></g><g
             transform="matrix(1,0,0,-0.937705,2.596196,87.5289)"
             id="g74"><path
               d="m 7.723,89.089 c 0,1.883 -1.422,3.407 -3.176,3.407 -1.75,0 -3.172,-1.524 -3.172,-3.407 0,-1.879 1.422,-3.395 3.172,-3.395 1.754,0 3.176,1.516 3.176,3.395 z"
               style="fill:#ffffff;fill-opacity:1;fill-rule:nonzero;stroke:#0b0b0b;stroke-width:0.50531101;stroke-linecap:butt;stroke-linejoin:round;stroke-miterlimit:4;stroke-dasharray:1.010623, 1.010623;stroke-dashoffset:0;stroke-opacity:1"
               id="path76"
               inkscape:connector-curvature="0" /></g><g
             transform="matrix(1,0,0,-0.937705,2.596196,87.5289)"
             id="g78"><path
               d="m 88.574,89.705 c 0,1.871 -1.418,3.4 -3.172,3.4 -1.754,0 -3.175,-1.529 -3.175,-3.4 0,-1.878 1.421,-3.407 3.175,-3.407 1.754,0 3.172,1.529 3.172,3.407 z"
               style="fill:#ffffff;fill-opacity:1;fill-rule:nonzero;stroke:#0b0b0b;stroke-width:0.50531101;stroke-linecap:butt;stroke-linejoin:round;stroke-miterlimit:4;stroke-dasharray:1.010623, 1.010623;stroke-dashoffset:0;stroke-opacity:1"
               id="path80"
               inkscape:connector-curvature="0" /></g><g
             transform="matrix(1,0,0,-0.937705,2.596196,87.5289)"
             id="g86"><path
               d="m 169.723,4.082 c 0,1.875 -1.422,3.4 -3.176,3.4 -1.75,0 -3.172,-1.525 -3.172,-3.4 0,-1.878 1.422,-3.403 3.172,-3.403 1.754,0 3.176,1.525 3.176,3.403 z"
               style="fill:#ffffff;fill-opacity:1;fill-rule:nonzero;stroke:#0b0b0b;stroke-width:0.50531101;stroke-linecap:butt;stroke-linejoin:round;stroke-miterlimit:4;stroke-dasharray:1.010623, 1.010623;stroke-dashoffset:0;stroke-opacity:1"
               id="path88"
               inkscape:connector-curvature="0" /></g><g
             transform="matrix(1,0,0,-0.937705,2.596196,87.5289)"
             id="g94"><path
               d="m 167.723,89.089 c 0,1.883 -1.422,3.407 -3.176,3.407 -1.75,0 -3.172,-1.524 -3.172,-3.407 0,-1.879 1.422,-3.395 3.172,-3.395 1.754,0 3.176,1.516 3.176,3.395 z"
               style="fill:#ffffff;fill-opacity:1;fill-rule:nonzero;stroke:#0b0b0b;stroke-width:0.50531101;stroke-linecap:butt;stroke-linejoin:round;stroke-miterlimit:4;stroke-dasharray:1.010623, 1.010623;stroke-dashoffset:0;stroke-opacity:1"
               id="path96"
               inkscape:connector-curvature="0" /></g><path
             sodipodi:nodetypes="czc"
             inkscape:connector-curvature="0"
             id="path860"
             d="m 91.170196,3.412073 c 0,0 25.375424,15.717245 37.683974,15.951373 12.30854,0.234128 35.09365,-15.407005 35.09365,-15.407005"
             style="fill:#000000;fill-opacity:0.185;stroke:#000000;stroke-width:0.08;stroke-linecap:butt;stroke-linejoin:miter;stroke-miterlimit:4;stroke-dasharray:none;stroke-opacity:0" /></g></g></g></g></svg>