<?xml version="1.0" encoding="UTF-8" standalone="no"?>
<!-- Created with Inkscape (http://www.inkscape.org/) -->

<svg
   xmlns:dc="http://purl.org/dc/elements/1.1/"
   xmlns:cc="http://creativecommons.org/ns#"
   xmlns:rdf="http://www.w3.org/1999/02/22-rdf-syntax-ns#"
   xmlns:svg="http://www.w3.org/2000/svg"
   xmlns="http://www.w3.org/2000/svg"
   xmlns:sodipodi="http://sodipodi.sourceforge.net/DTD/sodipodi-0.dtd"
   xmlns:inkscape="http://www.inkscape.org/namespaces/inkscape"
   id="svg2"
   version="1.1"
   inkscape:version="0.48.3.1 r9886"
   width="212.72429"
   height="109.41112"
   xml:space="preserve"
   sodipodi:docname="SubextremalSchwarzschildDeSitterCongruence.pdf"><metadata
     id="metadata8"><rdf:RDF><cc:Work
         rdf:about=""><dc:format>image/svg+xml</dc:format><dc:type
           rdf:resource="http://purl.org/dc/dcmitype/StillImage" /><dc:title></dc:title></cc:Work></rdf:RDF></metadata><defs
     id="defs6"><clipPath
       clipPathUnits="userSpaceOnUse"
       id="clipPath20"><path
         d="M 0,0 171,0 171,88 0,88 0,0 z"
         id="path22" /></clipPath><clipPath
       clipPathUnits="userSpaceOnUse"
       id="clipPath3312"><rect
         style="fill:#000000;fill-opacity:0.43333333;stroke:none"
         id="rect3314"
         width="170.60718"
         height="92.350403"
         x="2.2253108"
         y="-90.495979"
         transform="scale(1,-1)"
         ry="0.12553123" /></clipPath></defs><sodipodi:namedview
     pagecolor="#ffffff"
     bordercolor="#666666"
     borderopacity="1"
     objecttolerance="10"
     gridtolerance="10"
     guidetolerance="10"
     inkscape:pageopacity="0"
     inkscape:pageshadow="2"
     inkscape:window-width="1366"
     inkscape:window-height="709"
     id="namedview4"
     showgrid="false"
     inkscape:zoom="2.157002"
     inkscape:cx="115.759"
     inkscape:cy="56.902889"
     inkscape:window-x="0"
     inkscape:window-y="27"
     inkscape:window-maximized="1"
     inkscape:current-layer="g10" /><g
     id="g10"
     inkscape:groupmode="layer"
     inkscape:label="SubextremalSchwarzschildDeSitterCongruence"
     transform="matrix(1.25,0,0,-1.25,0,109.41112)"><g
       id="g12" /><g
       id="g3262"
       clip-path="url(#clipPath3312)"><g
         id="g16"
         transform="translate(2.596196,-0.47109998)"><g
           id="g18" /><g
           id="g24"><g
             clip-path="url(#clipPath20)"
             id="g26"><g
               id="g28"><path
                 d="M 97.973,66.457 110.836,39.031"
                 style="fill:#000000;fill-opacity:1;fill-rule:evenodd;stroke:none"
                 id="path30"
                 inkscape:connector-curvature="0" /><path
                 d="m -75.738,83.883 321.145,0 0,-80 -321.145,0 0,80 z"
                 style="fill:#e6e6e6;fill-opacity:1;fill-rule:evenodd;stroke:none"
                 id="path32"
                 inkscape:connector-curvature="0" /><path
                 d="m -75.738,83.883 80,-80 80,80 80,-80"
                 style="fill:none;stroke:#e6e6e6;stroke-width:0.80000001;stroke-linecap:butt;stroke-linejoin:miter;stroke-miterlimit:4;stroke-opacity:1;stroke-dasharray:none"
                 id="path34"
                 inkscape:connector-curvature="0" /><path
                 d="m 3.973,3.883 2,2 2.289,-2 1.711,2 2,-2 2,2 2,-2 2,2 2,-2 2,2 2,-2"
                 style="fill:none;stroke:#000000;stroke-width:0.80000001;stroke-linecap:butt;stroke-linejoin:miter;stroke-miterlimit:4;stroke-opacity:1;stroke-dasharray:none"
                 id="path36"
                 inkscape:connector-curvature="0" /><path
                 d="m 23.973,3.883 2,2 2.289,-2 1.711,2 2,-2 2,2 2,-2 2,2 2,-2 2,2 2,-2"
                 style="fill:none;stroke:#000000;stroke-width:0.80000001;stroke-linecap:butt;stroke-linejoin:miter;stroke-miterlimit:4;stroke-opacity:1;stroke-dasharray:none"
                 id="path38"
                 inkscape:connector-curvature="0" /><path
                 d="m 43.973,3.883 2,2 2.289,-2 1.711,2 2,-2 2,2 2,-2 2,2 2,-2 2,2 2,-2"
                 style="fill:none;stroke:#000000;stroke-width:0.80000001;stroke-linecap:butt;stroke-linejoin:miter;stroke-miterlimit:4;stroke-opacity:1;stroke-dasharray:none"
                 id="path40"
                 inkscape:connector-curvature="0" /><path
                 d="m 64.262,3.883 2,2 2.285,-2 1.715,2 2,-2 2,2 2,-2 2,2 2,-2 2,2 2,-2"
                 style="fill:none;stroke:#000000;stroke-width:0.80000001;stroke-linecap:butt;stroke-linejoin:miter;stroke-miterlimit:4;stroke-opacity:1;stroke-dasharray:none"
                 id="path42"
                 inkscape:connector-curvature="0" /><path
                 d="m 4.547,83.031 2,2 2.289,-2 1.711,2 2,-2 2,2 2,-2 2,2 2,-2 2,2 2,-2"
                 style="fill:none;stroke:#000000;stroke-width:0.80000001;stroke-linecap:butt;stroke-linejoin:miter;stroke-miterlimit:4;stroke-opacity:1;stroke-dasharray:none"
                 id="path44"
                 inkscape:connector-curvature="0" /><path
                 d="m 24.379,83.312 2,2 2.285,-2 1.715,2 2,-2 2,2 2,-2 2,2 2,-2 2,2 2,-2"
                 style="fill:none;stroke:#000000;stroke-width:0.80000001;stroke-linecap:butt;stroke-linejoin:miter;stroke-miterlimit:4;stroke-opacity:1;stroke-dasharray:none"
                 id="path46"
                 inkscape:connector-curvature="0" /><path
                 d="m 44.262,83.598 2,2 2.285,-2 1.715,2 2,-2 2,2 2,-2 2,2 2,-2 2,2 2,-2"
                 style="fill:none;stroke:#000000;stroke-width:0.80000001;stroke-linecap:butt;stroke-linejoin:miter;stroke-miterlimit:4;stroke-opacity:1;stroke-dasharray:none"
                 id="path48"
                 inkscape:connector-curvature="0" /><path
                 d="m 64.262,83.598 2,2 2.285,-2 1.715,2 2,-2 2,2 2,-2 2,2 2,-2 2,2 2,-2"
                 style="fill:none;stroke:#000000;stroke-width:0.80000001;stroke-linecap:butt;stroke-linejoin:miter;stroke-miterlimit:4;stroke-opacity:1;stroke-dasharray:none"
                 id="path50"
                 inkscape:connector-curvature="0" /><path
                 d="m -75.738,83.883 80,-80 80,80 80,-80"
                 style="fill:none;stroke:#e6e6e6;stroke-width:0.80000001;stroke-linecap:butt;stroke-linejoin:miter;stroke-miterlimit:4;stroke-opacity:1;stroke-dasharray:none"
                 id="path52"
                 inkscape:connector-curvature="0" /><path
                 d="m -75.738,83.883 80,-80 80,80 80,-80"
                 style="fill:none;stroke:#080808;stroke-width:0.40000001;stroke-linecap:butt;stroke-linejoin:miter;stroke-miterlimit:4;stroke-opacity:1;stroke-dasharray:1.6, 1.6;stroke-dashoffset:0"
                 id="path54"
                 inkscape:connector-curvature="0" /><path
                 d="m -76.027,2.746 80,80 80,-80 80,80"
                 style="fill:none;stroke:#080808;stroke-width:0.40000001;stroke-linecap:butt;stroke-linejoin:miter;stroke-miterlimit:4;stroke-opacity:1;stroke-dasharray:1.6, 1.6;stroke-dashoffset:0"
                 id="path56"
                 inkscape:connector-curvature="0" /><path
                 d="m -75.738,83.883 80,0"
                 style="fill:none;stroke:#080808;stroke-width:0.80000001;stroke-linecap:butt;stroke-linejoin:miter;stroke-miterlimit:4;stroke-opacity:1;stroke-dasharray:none"
                 id="path58"
                 inkscape:connector-curvature="0" /><path
                 d="m -75.738,3.883 80,0"
                 style="fill:none;stroke:#080808;stroke-width:0.80000001;stroke-linecap:butt;stroke-linejoin:miter;stroke-miterlimit:4;stroke-opacity:1;stroke-dasharray:none"
                 id="path60"
                 inkscape:connector-curvature="0" /><path
                 d="m 84.262,83.883 80,0"
                 style="fill:none;stroke:#080808;stroke-width:0.80000001;stroke-linecap:butt;stroke-linejoin:miter;stroke-miterlimit:4;stroke-opacity:1;stroke-dasharray:none"
                 id="path62"
                 inkscape:connector-curvature="0" /><path
                 d="m 84.332,3.883 80,0"
                 style="fill:none;stroke:#080808;stroke-width:0.80000001;stroke-linecap:butt;stroke-linejoin:miter;stroke-miterlimit:4;stroke-opacity:1;stroke-dasharray:none"
                 id="path64"
                 inkscape:connector-curvature="0" /><g
                 transform="matrix(1,0,0,-0.937705,0,88)"
                 id="g66"><path
                   d="m 87.848,3.628 c 0,1.875 -1.418,3.4 -3.172,3.4 -1.754,0 -3.172,-1.525 -3.172,-3.4 0,-1.878 1.418,-3.407 3.172,-3.407 1.754,0 3.172,1.529 3.172,3.407 z"
                   style="fill:#ffffff;fill-opacity:1;fill-rule:nonzero;stroke:#0b0b0b;stroke-width:0.50531101;stroke-linecap:butt;stroke-linejoin:round;stroke-miterlimit:4;stroke-opacity:1;stroke-dasharray:1.010623, 1.010623;stroke-dashoffset:0"
                   id="path68"
                   inkscape:connector-curvature="0" /></g><g
                 transform="matrix(1,0,0,-0.937705,0,88)"
                 id="g70"><path
                   d="m 7.148,4.695 c 0,1.879 -1.421,3.395 -3.175,3.395 -1.75,0 -3.168,-1.516 -3.168,-3.395 0,-1.883 1.418,-3.404 3.168,-3.404 1.754,0 3.175,1.521 3.175,3.404 z"
                   style="fill:#ffffff;fill-opacity:1;fill-rule:nonzero;stroke:#0b0b0b;stroke-width:0.50531101;stroke-linecap:butt;stroke-linejoin:round;stroke-miterlimit:4;stroke-opacity:1;stroke-dasharray:1.010623, 1.010623;stroke-dashoffset:0"
                   id="path72"
                   inkscape:connector-curvature="0" /></g><g
                 transform="matrix(1,0,0,-0.937705,0,88)"
                 id="g74"><path
                   d="m 7.723,89.089 c 0,1.883 -1.422,3.407 -3.176,3.407 -1.75,0 -3.172,-1.524 -3.172,-3.407 0,-1.879 1.422,-3.395 3.172,-3.395 1.754,0 3.176,1.516 3.176,3.395 z"
                   style="fill:#ffffff;fill-opacity:1;fill-rule:nonzero;stroke:#0b0b0b;stroke-width:0.50531101;stroke-linecap:butt;stroke-linejoin:round;stroke-miterlimit:4;stroke-opacity:1;stroke-dasharray:1.010623, 1.010623;stroke-dashoffset:0"
                   id="path76"
                   inkscape:connector-curvature="0" /></g><g
                 transform="matrix(1,0,0,-0.937705,0,88)"
                 id="g78"><path
                   d="m 88.574,89.705 c 0,1.871 -1.418,3.4 -3.172,3.4 -1.754,0 -3.175,-1.529 -3.175,-3.4 0,-1.878 1.421,-3.407 3.175,-3.407 1.754,0 3.172,1.529 3.172,3.407 z"
                   style="fill:#ffffff;fill-opacity:1;fill-rule:nonzero;stroke:#0b0b0b;stroke-width:0.50531101;stroke-linecap:butt;stroke-linejoin:round;stroke-miterlimit:4;stroke-opacity:1;stroke-dasharray:1.010623, 1.010623;stroke-dashoffset:0"
                   id="path80"
                   inkscape:connector-curvature="0" /></g><path
                 d="m 164.117,83.004 2,2 2.285,-2 1.715,2 2,-2 2,2 2,-2 2,2 2,-2 2,2 2,-2"
                 style="fill:none;stroke:#000000;stroke-width:0.80000001;stroke-linecap:butt;stroke-linejoin:miter;stroke-miterlimit:4;stroke-opacity:1;stroke-dasharray:none"
                 id="path82"
                 inkscape:connector-curvature="0" /><path
                 d="m 166.293,3.746 2,2 2.281,-2 1.719,2 2,-2 2,2 2,-2 2,2 2,-2 2,2 2,-2"
                 style="fill:none;stroke:#000000;stroke-width:0.80000001;stroke-linecap:butt;stroke-linejoin:miter;stroke-miterlimit:4;stroke-opacity:1;stroke-dasharray:none"
                 id="path84"
                 inkscape:connector-curvature="0" /><g
                 transform="matrix(1,0,0,-0.937705,0,88)"
                 id="g86"><path
                   d="m 169.723,4.082 c 0,1.875 -1.422,3.4 -3.176,3.4 -1.75,0 -3.172,-1.525 -3.172,-3.4 0,-1.878 1.422,-3.403 3.172,-3.403 1.754,0 3.176,1.525 3.176,3.403 z"
                   style="fill:#ffffff;fill-opacity:1;fill-rule:nonzero;stroke:#0b0b0b;stroke-width:0.50531101;stroke-linecap:butt;stroke-linejoin:round;stroke-miterlimit:4;stroke-opacity:1;stroke-dasharray:1.010623, 1.010623;stroke-dashoffset:0"
                   id="path88"
                   inkscape:connector-curvature="0" /></g><path
                 d="m 169.457,82.176 77.723,-77.723 0,0.277"
                 style="fill:none;stroke:#000000;stroke-width:0.38863799;stroke-linecap:butt;stroke-linejoin:miter;stroke-miterlimit:4;stroke-opacity:1;stroke-dasharray:1.554553, 1.554553;stroke-dashoffset:0"
                 id="path90"
                 inkscape:connector-curvature="0" /><path
                 d="m 245.117,83.598 -79.715,-79.137 0.286,0.57"
                 style="fill:none;stroke:#000000;stroke-width:0.40000001;stroke-linecap:butt;stroke-linejoin:miter;stroke-miterlimit:4;stroke-opacity:1;stroke-dasharray:1.6, 1.6;stroke-dashoffset:0"
                 id="path92"
                 inkscape:connector-curvature="0" /><g
                 transform="matrix(1,0,0,-0.937705,0,88)"
                 id="g94"><path
                   d="m 167.723,89.089 c 0,1.883 -1.422,3.407 -3.176,3.407 -1.75,0 -3.172,-1.524 -3.172,-3.407 0,-1.879 1.422,-3.395 3.172,-3.395 1.754,0 3.176,1.516 3.176,3.395 z"
                   style="fill:#ffffff;fill-opacity:1;fill-rule:nonzero;stroke:#0b0b0b;stroke-width:0.50531101;stroke-linecap:butt;stroke-linejoin:round;stroke-miterlimit:4;stroke-opacity:1;stroke-dasharray:1.010623, 1.010623;stroke-dashoffset:0"
                   id="path96"
                   inkscape:connector-curvature="0" /></g></g></g></g></g><path
         sodipodi:nodetypes="czccc"
         inkscape:connector-curvature="0"
         id="path3224"
         d="m 127.95537,42.651793 c 0,0 -25.93275,7.461998 -40.797359,7.417704 -14.864616,-0.0443 -41.539138,-8.159473 -41.539138,-8.159473 l 1.48354,0.370885 0.370885,0"
         style="fill:none;stroke:#000000;stroke-width:0.80000001px;stroke-linecap:butt;stroke-linejoin:miter;stroke-opacity:1" /><path
         sodipodi:nodetypes="czccc"
         inkscape:connector-curvature="0"
         id="path3224-3"
         d="m 45.247981,41.780139 c 0,0 -25.93275,-8.767611 -40.7973499,-8.715567 -14.8646201,0.05205 -41.5391401,9.587123 -41.5391401,9.587123 l 1.48354,-0.435778 0.37088,0"
         style="fill:none;stroke:#000000;stroke-width:0.86716765px;stroke-linecap:butt;stroke-linejoin:miter;stroke-opacity:1" /><path
         sodipodi:nodetypes="czccc"
         inkscape:connector-curvature="0"
         id="path3224-3-2"
         d="m 209.5501,41.752408 c 0,0 -25.93275,-8.767611 -40.79735,-8.715567 -14.86462,0.05205 -41.53914,9.587123 -41.53914,9.587123 l 1.48354,-0.435778 0.37088,0"
         style="fill:none;stroke:#000000;stroke-width:0.86716765px;stroke-linecap:butt;stroke-linejoin:miter;stroke-opacity:1" /></g></g></svg>